<?xml version="1.0" encoding="UTF-8"?> <svg xmlns="http://www.w3.org/2000/svg" viewBox="0 0 1108 732" fill="none"><style xmlns="http://www.w3.org/2000/svg"> /* <![CDATA[ */ #logo { animation: logo 2s ease-in-out infinite alternate; } #woman { animation: woman 2s ease-in-out infinite alternate; } @keyframes logo { to { transform: scaleY(.85) translateY(15%); } } @keyframes woman { to { transform: translateY(10.8%); } } /* ]]> */ </style><g clip-path="url(#clip0)"><path fill="#F2F2F2" d="M767.68 330.79l6.89-2.7c.66-.26 1.31-.54 2-.81a59.851 59.851 0 0 1 15.28-115.77l-4.8 24.2 18.22-23.92h.16a59.869 59.869 0 0 1 51.16 67.45c-.15 1.13-.39 2.23-.6 3.34 5.61-4.43 10.87-9.32 14.81-15 8-11.54 10.71-25.76 13.47-43.17 5.47-34.48 10.4-69.34 14.84-104.18a59.829 59.829 0 0 1-42-65.36c.25-1.82.6-3.59 1-5.34.1-.44.2-.88.31-1.31.43-1.69.91-3.35 1.47-5 .09-.27.21-.52.3-.78.5-1.37 1-2.72 1.65-4 .22-.5.44-1 .67-1.47a57.69 57.69 0 0 1 2.22-4.19c.27-.45.56-.88.83-1.33.62-1 1.27-2 1.94-2.93.36-.5.71-1 1.08-1.49l.27-.39a59.812 59.812 0 0 1 74.64-17l-6.24 31.49 18-23.64a59.5 59.5 0 0 1 16.32 68.62h.07c-.17.4-.38.78-.55 1.18-.33.74-.67 1.47-1 2.2-.46.93-1 1.84-1.45 2.74-.38.68-.75 1.36-1.16 2-.59 1-1.23 1.9-1.87 2.83-.38.54-.73 1.1-1.12 1.63-1 1.39-2.12 2.72-3.26 4-.4.45-.83.86-1.25 1.3-.81.86-1.62 1.71-2.48 2.52-.53.5-1.09 1-1.64 1.46-.79.7-1.6 1.38-2.43 2-.59.47-1.19.92-1.79 1.36-.87.63-1.75 1.22-2.64 1.81-.6.39-1.2.78-1.81 1.15-1 .61-2.05 1.17-3.1 1.72-.53.27-1 .57-1.59.83-1.58.77-3.2 1.48-4.85 2.11-.31.12-.64.21-.95.32-1.38.5-2.77 1-4.18 1.35-.61.17-1.23.31-1.85.46-1.15.28-2.31.54-3.48.76-.667.12-1.357.23-2.07.33-1.15.17-2.31.3-3.48.4-.69.06-1.37.12-2.07.16-1.26.06-2.53.07-3.8.06a2.085 2.085 0 0 0-.25 0 3545.144 3545.144 0 0 1-5.92 44 59.824 59.824 0 0 1 40.974-23.792A59.82 59.82 0 0 1 996 156.47l-15.68 26.58 25.21-16.59a59.678 59.678 0 0 1 11.5 44.16 58.588 58.588 0 0 1-4.5 15.94 59.828 59.828 0 0 1-111.19-4c-.23 1.48-.45 3-.68 4.46-2.44 15.35-5.47 34.46-16.23 50-7.29 10.56-17.33 18.36-27.09 25.22a353.39 353.39 0 0 1-19.48 12.77 59.847 59.847 0 0 1-24.53 13.74 375.655 375.655 0 0 1-32.69 14.81l-6.95 2.72c-6.25 2.44-12.65 4.94-19 7.6 1 .09 2 .17 3 .3a59.904 59.904 0 0 1 50.86 49.05l-42.31 23.11 42.18-1.89A59.165 59.165 0 0 1 797 450.13a59.873 59.873 0 0 1-82.7 11.74l2.1 3.91c1.4 2.58 2.78 5.15 4.12 7.7 18.33 34.74 19.66 64.74 3.75 84.49l-13-10.45c15.49-19.22 3.2-49.77-5.5-66.27-1.32-2.5-2.68-5-4-7.56-11.77-21.83-25.12-46.57-19.77-72.9 8-39.7 51.05-56.5 85.68-70zM269.6 519.01l-5.38-2.11c-.52-.2-1-.43-1.54-.63a46.748 46.748 0 0 0 30.172-49.983 46.752 46.752 0 0 0-42.112-40.437l3.75 18.9-14.22-18.68h-.13a46.748 46.748 0 0 0-30.914 18.053 46.754 46.754 0 0 0-9.086 34.627c.12.89.31 1.74.47 2.61a55.822 55.822 0 0 1-11.56-11.73c-6.23-9-8.37-20.12-10.53-33.71-4.23-26.93-8.07-54.15-11.52-81.33a46.719 46.719 0 0 0 32.77-51.05c-.2-1.42-.47-2.8-.79-4.17l-.24-1a48.36 48.36 0 0 0-1.15-3.88c-.07-.21-.16-.41-.24-.61a48.24 48.24 0 0 0-1.28-3.15c-.18-.38-.35-.77-.53-1.15-.54-1.11-1.11-2.2-1.73-3.26-.21-.36-.44-.7-.65-1-.49-.78-1-1.55-1.52-2.29-.28-.39-.55-.79-.84-1.17l-.21-.3a46.76 46.76 0 0 0-58.29-13.32l4.88 24.6-14.07-18.46a46.48 46.48 0 0 0-12.75 53.59h-.05c.13.31.29.61.43.92.26.58.52 1.15.8 1.72.36.72.74 1.43 1.14 2.13.29.54.58 1.07.9 1.59.46.75 1 1.48 1.46 2.21.3.42.57.86.88 1.27.8 1.08 1.65 2.12 2.54 3.13.31.35.65.67 1 1 .63.67 1.27 1.33 1.94 2 .41.4.85.77 1.28 1.14.62.553 1.25 1.083 1.89 1.59.46.36.93.71 1.4 1.06.68.49 1.37 1 2.06 1.41.47.31.94.61 1.42.9.79.48 1.6.91 2.42 1.34.42.22.82.45 1.24.66 1.24.6 2.5 1.15 3.79 1.64.24.1.5.16.74.25 1.07.39 2.16.75 3.27 1.06.47.13 1 .24 1.44.35.9.22 1.8.43 2.72.6l1.61.26c.9.13 1.81.23 2.72.31.54.05 1.07.09 1.62.12 1 .05 2 .06 3 .05h.19c1.467 11.48 3.007 22.95 4.62 34.41a46.715 46.715 0 0 0-50.815-17.051 46.71 46.71 0 0 0-16.665 8.911l12.14 20.64-19.68-12.95a46.567 46.567 0 0 0-9 34.49c.58 4.3 1.769 8.495 3.53 12.46a46.726 46.726 0 0 0 44.48 27.947 46.73 46.73 0 0 0 42.36-31.067c.18 1.15.35 2.32.53 3.48 1.9 12 4.27 26.92 12.67 39.08 5.7 8.24 13.54 14.33 21.16 19.69a284.552 284.552 0 0 0 15.21 10 46.875 46.875 0 0 0 19.16 10.74c8.32 4.26 16.84 8.14 25.54 11.56l5.42 2.13c4.88 1.9 9.88 3.85 14.81 5.93-.78.07-1.57.13-2.36.24a46.77 46.77 0 0 0-39.72 38.27l33 18-32.94-1.47a46.783 46.783 0 0 0 51.883 37.825 46.784 46.784 0 0 0 21.687-8.625c-.55 1-1.09 2-1.64 3.05-1.09 2-2.17 4-3.22 6-14.31 27.13-15.35 50.57-2.92 66l10.13-8.16c-12.1-15-2.5-38.87 4.3-51.76 1-1.95 2.09-3.92 3.16-5.9 9.19-17 19.61-36.37 15.46-56.94-6.21-30.94-39.86-44.02-66.9-54.6z"></path><path fill="#3F3D56" d="M554 731.18c305.966 0 554-10.521 554-23.5s-248.034-23.5-554-23.5S0 694.701 0 707.68s248.034 23.5 554 23.5z"></path><path fill="#000" d="M554 731.18c305.966 0 554-10.521 554-23.5s-248.034-23.5-554-23.5S0 694.701 0 707.68s248.034 23.5 554 23.5z" opacity=".1"></path><path fill="#3F3D56" d="M554 718.18c305.966 0 554-10.521 554-23.5s-248.034-23.5-554-23.5S0 681.701 0 694.68s248.034 23.5 554 23.5z"></path><path stroke="#3F3D56" stroke-miterlimit="10" stroke-width="4" d="M85 686.32c-3-5.51.4-12.26 4.28-17.18 3.88-4.92 8.61-10 8.51-16.29-.14-9-9.7-14.31-17.33-19.08a84.81 84.81 0 0 1-15.56-12.51 22.996 22.996 0 0 1-4.78-6.4c-1.58-3.52-1.53-7.52-1.43-11.38a823.91 823.91 0 0 1 1.9-38.48"></path><path fill="#42D161" d="M46.11 564.29a14 14 0 0 1 7-11.49l3.14 6.21-.09-7.52a13.854 13.854 0 0 1 4.62-.56 14 14 0 1 1-14.67 13.36zM71.14 659.29a14 14 0 0 0 26.5-5.76c.1-1.94-.21-3.878-.91-5.69a14.004 14.004 0 0 0-13.187-9.081 14.002 14.002 0 0 0-13.083 9.231l8.77 7.13-9.64-2.24a13.89 13.89 0 0 0 1.55 6.41zM78.07 632.04a13.996 13.996 0 0 0 14.876-11.722A14.001 14.001 0 0 0 82.53 604.5l.07 5.79-3.18-6.29a14.038 14.038 0 1 0-1.31 28.05l-.04-.01zM44 609.37a14.019 14.019 0 0 0 13.342-8.033 14.01 14.01 0 0 0 .505-10.715 14.03 14.03 0 0 0-7.22-7.934 14.033 14.033 0 0 0-5.307-1.318 13.886 13.886 0 0 0-7.52 1.78l2.48 6.8-5.11-4.9a14 14 0 0 0-4.53 9.69 13.328 13.328 0 0 0 .36 3.85 14.002 14.002 0 0 0 13 10.78z"></path><path fill="#000" d="M48 568.03c3.24.36 6.39 1.37 9.64 1.57 3.25.2 6.82-.58 8.88-3.1 1.11-1.37 1.66-3.09 2.59-4.57a10.084 10.084 0 0 1 3.54-3.33 14 14 0 1 1-26.24 9.32c.53.02 1.06.06 1.59.11zM44 609.37a14.003 14.003 0 0 0 14.673-12.973 14.001 14.001 0 0 0-1.323-7.027 10.394 10.394 0 0 0-2.82 2.83c-1 1.51-1.61 3.25-2.78 4.64-2.19 2.57-5.92 3.41-9.31 3.25-3.39-.16-6.66-1.11-10-1.42-.47 0-.94-.08-1.41-.09A14 14 0 0 0 44 609.37zM78.07 632.04a14.003 14.003 0 0 0 13.47-19.76 11.349 11.349 0 0 0-3 2.85c-1.09 1.54-1.77 3.31-3 4.73-2.36 2.64-6.34 3.57-9.93 3.48-3.59-.09-6.82-.93-10.28-1.19a14.002 14.002 0 0 0 12.74 9.89zM71.14 659.29a14 14 0 0 0 26.5-5.76c.1-1.939-.21-3.878-.91-5.69a13.997 13.997 0 0 0-3.08 2.74c-1.34 1.63-2.21 3.47-3.76 5-2.87 2.82-7.5 4-11.62 4.09a62.21 62.21 0 0 1-7.13-.38z" opacity=".1"></path><path fill="#656380" d="M106.19 679.98s-11.08-.34-14.41-2.72c-3.33-2.38-17-5.22-17.87-1.4-.87 3.82-16.65 19-4.14 19.06 12.51.06 29.06-2 32.39-4 3.33-2 4.03-10.94 4.03-10.94z"></path><path fill="#000" d="M69.54 693.59c12.51.1 29.06-2 32.4-4 2.53-1.54 3.54-7.09 3.88-9.65h.37s-.7 8.93-4 11c-3.3 2.07-19.89 4.08-32.39 4-3.61 0-4.86-1.31-4.79-3.22.47 1.13 1.85 1.87 4.53 1.87z" opacity=".2"></path><path stroke="#3F3D56" stroke-miterlimit="10" stroke-width="4" d="M1055 695.32c-3-5.51.4-12.26 4.28-17.18 3.88-4.92 8.61-10 8.51-16.29-.14-9-9.7-14.31-17.33-19.08a84.992 84.992 0 0 1-15.56-12.51 23.123 23.123 0 0 1-4.78-6.4c-1.58-3.52-1.53-7.52-1.43-11.38.33-12.84.96-25.667 1.9-38.48"></path><path fill="#42D161" d="M1016.11 573.29a14.06 14.06 0 0 1 2.03-6.641 13.952 13.952 0 0 1 4.97-4.849l3.14 6.21-.09-7.52c1.5-.446 3.06-.635 4.62-.56 2.76.137 5.42 1.089 7.64 2.737a13.92 13.92 0 0 1 4.84 6.519c.94 2.604 1.08 5.425.41 8.109a14.052 14.052 0 0 1-4.16 6.972 14.025 14.025 0 0 1-7.33 3.489c-2.74.413-5.53.007-8.04-1.168a14.003 14.003 0 0 1-6.03-5.43 13.96 13.96 0 0 1-2.01-7.868h.01zM1041.14 668.29a13.956 13.956 0 0 0 6.48 6.348 13.977 13.977 0 0 0 9 1.047c3.04-.659 5.77-2.31 7.76-4.692a13.99 13.99 0 0 0 3.26-8.463c.1-1.94-.21-3.878-.91-5.69a14.022 14.022 0 0 0-5.17-6.612 13.996 13.996 0 0 0-21.1 6.762l8.77 7.13-9.64-2.24a13.88 13.88 0 0 0 1.55 6.41zM1048.07 641.04c3.5.265 6.97-.793 9.72-2.964a13.98 13.98 0 0 0 5.16-8.758 14 14 0 0 0-10.42-15.818l.07 5.79-3.18-6.29a14.034 14.034 0 0 0-10.11 3.645 14.034 14.034 0 0 0-4.57 9.725 14.083 14.083 0 0 0 3.64 10.109 14.057 14.057 0 0 0 9.73 4.571l-.04-.01zM1014 618.37c3.71.175 7.34-1.132 10.09-3.634a13.993 13.993 0 0 0 4.57-9.706 14 14 0 0 0-3.63-10.093c-2.51-2.749-6-4.392-9.71-4.567-2.62-.13-5.23.487-7.52 1.78l2.48 6.8-5.11-4.9a14.022 14.022 0 0 0-4.53 9.69c-.07 1.294.05 2.591.36 3.85.7 2.967 2.35 5.625 4.69 7.571a14.025 14.025 0 0 0 8.31 3.209z"></path><path fill="#000" d="M1018 577.03c3.24.36 6.39 1.37 9.64 1.57 3.25.2 6.82-.58 8.88-3.1 1.11-1.37 1.66-3.09 2.59-4.57a10.111 10.111 0 0 1 3.54-3.33c.85 1.77 1.31 3.698 1.37 5.66a14.05 14.05 0 0 1-4.35 10.527 13.946 13.946 0 0 1-4.96 3.047c-1.85.657-3.82.918-5.78.766a14.045 14.045 0 0 1-5.58-1.649 14.103 14.103 0 0 1-4.43-3.778 13.941 13.941 0 0 1-2.51-5.253c.53.02 1.06.06 1.59.11zM1014 618.37c2.42.123 4.83-.385 7-1.473a13.99 13.99 0 0 0 5.35-4.736 13.91 13.91 0 0 0 2.32-6.764 13.96 13.96 0 0 0-1.32-7.027 10.475 10.475 0 0 0-2.82 2.83c-1 1.51-1.61 3.25-2.78 4.64-2.19 2.57-5.92 3.41-9.31 3.25-3.39-.16-6.66-1.11-10-1.42-.47 0-.94-.08-1.41-.09a13.98 13.98 0 0 0 4.68 7.568 13.996 13.996 0 0 0 8.29 3.222zM1048.07 641.04a14 14 0 0 0 6.94-1.44 14.08 14.08 0 0 0 5.35-4.656 14.06 14.06 0 0 0 2.38-6.677 14.1 14.1 0 0 0-1.2-6.987 11.334 11.334 0 0 0-3 2.85c-1.09 1.54-1.77 3.31-3 4.73-2.36 2.64-6.34 3.57-9.93 3.48-3.59-.09-6.82-.93-10.28-1.19a13.973 13.973 0 0 0 4.8 6.964 14.024 14.024 0 0 0 7.94 2.926zM1041.14 668.29a13.956 13.956 0 0 0 6.48 6.348 13.977 13.977 0 0 0 9 1.047c3.04-.659 5.77-2.31 7.76-4.692a13.99 13.99 0 0 0 3.26-8.463c.1-1.939-.21-3.878-.91-5.69-1.16.756-2.19 1.68-3.08 2.74-1.34 1.63-2.21 3.47-3.76 5-2.87 2.82-7.5 4-11.62 4.09-2.38.01-4.76-.117-7.13-.38z" opacity=".1"></path><path fill="#656380" d="M1076.19 688.98s-11.08-.34-14.41-2.72c-3.33-2.38-17-5.22-17.87-1.4-.87 3.82-16.65 19-4.14 19.06 12.51.06 29.06-2 32.39-4 3.33-2 4.03-10.94 4.03-10.94z"></path><path fill="#000" d="M1039.54 702.59c12.51.1 29.06-2 32.4-4 2.53-1.54 3.54-7.09 3.88-9.65h.37s-.7 8.93-4 11c-3.3 2.07-19.89 4.08-32.39 4-3.61 0-4.86-1.31-4.79-3.22.47 1.13 1.85 1.87 4.53 1.87z" opacity=".2"></path><g id="logo"><path fill="#53C1DE" d="M745.57 331.15a417.963 417.963 0 0 0-20-6.3 407.188 407.188 0 0 0 3.09-13.65c15.14-73.51 5.24-132.73-28.57-152.22-32.42-18.7-85.44.8-139 47.39a427.558 427.558 0 0 0-15.47 14.2 396.676 396.676 0 0 0-10.3-9.51c-56.11-49.83-112.32-70.82-146.14-51.27-32.39 18.75-42 74.42-28.35 144.09 1.333 6.9 2.863 13.76 4.59 20.58-7.95 2.26-15.64 4.67-23 7.24-65.79 22.89-107.81 58.89-107.81 96.18 0 38.51 45.11 77.14 113.64 100.56 5.56 1.887 11.16 3.64 16.8 5.26a412.914 412.914 0 0 0-4.88 22.18c-13 68.46-2.84 122.82 29.46 141.45 33.37 19.26 89.37-.54 143.89-48.2 4.31-3.77 8.63-7.77 13-11.95a409.86 409.86 0 0 0 16.79 15.32c52.82 45.45 105 63.81 137.26 45.12 33.33-19.29 44.16-77.69 30.1-148.73a326.117 326.117 0 0 0-3.73-16.61c3.94-1.16 7.793-2.363 11.56-3.61 71.24-23.6 117.6-61.76 117.6-100.79 0-37.43-43.38-73.62-110.5-96.73h-.03z"></path><path fill="#fff" d="M730.12 503.47c-3.4 1.13-6.88 2.21-10.44 3.27a621.538 621.538 0 0 0-31.47-78.73 623.055 623.055 0 0 0 30.25-77.58c6.35 1.84 12.53 3.78 18.47 5.83 57.51 19.79 92.59 49.06 92.59 71.62 0 24-37.89 55.21-99.4 75.59zm-25.52 50.58c6.22 31.41 7.1 59.81 3 82-3.7 19.95-11.14 33.25-20.34 38.58-19.59 11.33-61.47-3.4-106.64-42.27a384.13 384.13 0 0 1-15.63-14.25 624.15 624.15 0 0 0 52.09-66.14 620.28 620.28 0 0 0 84.17-13c1.267 5.12 2.39 10.12 3.37 15l-.02.08zM446.48 672.69c-19.14 6.76-34.38 6.95-43.59 1.64-19.6-11.31-27.75-55-16.63-113.5a411.518 411.518 0 0 1 4.53-20.63 625.867 625.867 0 0 0 83.75 12.13 645.125 645.125 0 0 0 53.35 65.9 320.71 320.71 0 0 1-11.84 10.91c-24.11 21.08-48.28 36-69.57 43.55zm-89.64-169.37c-30.31-10.36-55.33-23.82-72.49-38.5-15.41-13.2-23.19-26.31-23.19-36.94 0-22.63 33.74-51.5 90-71.11a371.842 371.842 0 0 1 21.39-6.73 637.065 637.065 0 0 0 30.29 78.48 646.222 646.222 0 0 0-30.66 79.6 318.793 318.793 0 0 1-15.34-4.8zm30.05-204.54c-11.68-59.69-3.93-104.72 15.59-116 20.79-12 66.76 5.12 115.22 48.15 3.1 2.75 6.21 5.63 9.32 8.6a635.851 635.851 0 0 0-52.93 65.52 648.353 648.353 0 0 0-82.93 12.89 369.075 369.075 0 0 1-4.27-19.15v-.01zM655 364.97a847.824 847.824 0 0 0-18.89-31.08c19.83 2.51 38.82 5.83 56.66 9.91a565.68 565.68 0 0 1-19.89 53.51c-5.74-10.9-11.7-21.68-17.88-32.34zM545.64 258.5a569.415 569.415 0 0 1 36.57 44.14 780.268 780.268 0 0 0-73.45 0c12.07-15.92 24.44-30.72 36.88-44.13v-.01zm-110 106.65a788.735 788.735 0 0 0-17.55 32.14c-7.73-18.33-14.34-36.36-19.74-53.77 17.73-4 36.64-7.21 56.34-9.68a762.753 762.753 0 0 0-19.07 31.31h.02zm19.61 158.65a564.356 564.356 0 0 1-57.25-9.21c5.49-17.71 12.25-36.13 20.15-54.86a782.128 782.128 0 0 0 17.61 32.16 761.131 761.131 0 0 0 19.47 31.91h.02zm91.14 75.33c-12.6-13.54-25.15-28.54-37.39-44.75 11.9.473 24.02.71 36.36.71 12.667 0 25.17-.28 37.51-.84a564.05 564.05 0 0 1-36.5 44.88h.02zm126.69-140.35A562.77 562.77 0 0 1 694 513.44a561.552 561.552 0 0 1-58 9.89 943.577 943.577 0 0 0 19.08-31.63 820.374 820.374 0 0 0 18-32.92zm-41 19.66a874.985 874.985 0 0 1-29.81 48.1c-18.44 1.32-37.49 2-56.91 2-19.42 0-38.15-.6-56.27-1.78a758.533 758.533 0 0 1-30.39-48.17 732.424 732.424 0 0 1-26.51-50.08 757.149 757.149 0 0 1 26.43-50.1 743.273 743.273 0 0 1 30.13-48 750.8 750.8 0 0 1 56.59-2.13c19.16 0 38.22.74 56.69 2.14a821.039 821.039 0 0 1 30 47.81 857.48 857.48 0 0 1 26.79 49.87 795.185 795.185 0 0 1-26.71 50.3l-.03.04zm54.77-296.46c20.81 12 28.9 60.4 15.83 123.87a361.733 361.733 0 0 1-2.8 12.35 635.706 635.706 0 0 0-83.09-13.13 625.224 625.224 0 0 0-52.53-65.56 402.178 402.178 0 0 1 14.29-13.11c45.88-39.93 88.76-55.69 108.3-44.42z"></path><path fill="#53C1DE" d="M545.34 372.38a55.502 55.502 0 0 1 54.434 66.327 55.505 55.505 0 0 1-43.606 43.606 55.494 55.494 0 0 1-56.975-23.599 55.502 55.502 0 0 1-9.353-30.834 55.494 55.494 0 0 1 16.253-39.247 55.487 55.487 0 0 1 39.247-16.253z"></path></g><g id="woman"><path fill="#3F3D56" d="M559.26 20.4a16.6 16.6 0 1 1-16.6-16.6 16.52 16.52 0 0 1 16.6 16.6z"></path><path fill="#3F3D56" d="M529.4 24.59A16.618 16.618 0 0 1 541.89.05a16.596 16.596 0 0 0-12.364 4.897 16.607 16.607 0 0 0-4.802 12.4 16.61 16.61 0 0 0 5.841 11.947A16.598 16.598 0 0 0 543.3 33.12a16.6 16.6 0 0 1-13.9-8.53zM566.38 43.52h-44.47v69.37h44.47V43.52z"></path><path fill="#000" d="M566.38 43.52h-44.47v69.37h44.47V43.52z" opacity=".1"></path><path fill="#A0616A" d="M451.66 295.2s-4.75 13.05-16 14.83c-11.25 1.78-17.79 4.74-17.79 4.74l26.68 17.19 14.23-1.78s1.78-18.38 7.71-22.53c5.93-4.15-14.83-12.45-14.83-12.45zM644.34 295.2s4.75 13.05 16 14.83c11.25 1.78 17.79 4.74 17.79 4.74l-26.68 17.19-14.23-1.78s-1.78-18.38-7.71-22.53c-5.93-4.15 14.83-12.45 14.83-12.45z"></path><path fill="#3F3D56" d="M514.5 180.18s-7.11 3.56-9.48 10.68c0 0-13 4.15-20.16 15.41 0 0-8.9 9.49-10.08 14.23-1.18 4.74-14.78 33.2-14.78 33.2s-13.64 44.47-20.75 49.21c0 0 22.53-4.74 26.68 17.79 0 0 5.33 0 11.26-20.75s20.16-46.25 20.16-46.25 4.74-17.78 8.89-20.75c4.15-2.97 10.67-16.6 16.6-13 5.93 3.6 45.06-.6 45.06-.6s23.1 10.64 23.68 17.75c.58 7.11 4.74 7.71 5.33 13.64.59 5.93 22.53 52.76 22.53 52.76s4.15 13 5.34 16c0 0 13-31.42 30.24-13.63 0 0-.6-11.86-5.93-19-5.33-7.14-28.46-62.84-28.46-62.84s-2.37-8.3-4.74-10.67c-2.37-2.37-20.76-21.35-27.28-21.35 0 0-3.55-8.89-7.7-10.08l-66.41-1.75zM461.14 326.03a28.894 28.894 0 0 1-28.22-3.79 56.39 56.39 0 0 0-12.59-7.3c-6.29-2.54-13.81-4.42-16.1-.17-4.15 7.71 50.39 26.68 50.39 26.68s7.12-4.15 6.52-15.42zM634.86 326.03a28.894 28.894 0 0 0 28.22-3.79 56.39 56.39 0 0 1 12.59-7.3c6.29-2.54 13.81-4.42 16.1-.17 4.15 7.71-50.39 26.68-50.39 26.68s-7.12-4.15-6.52-15.42z"></path><path fill="#A0616A" d="M533.88 82.67c-.22 2.06-.9 4.29-2.66 5.38-1.44.9-3.26.83-4.92 1.17a11.455 11.455 0 0 0-7.82 6.77 17.518 17.518 0 0 0-.75 10.55c.392 1.719.9 3.409 1.52 5.06 1.74 4.92 3.84 9.8 7.09 13.89a59.04 59.04 0 0 0 9.3 8.77c2.11 1.72 4.29 3.47 6.89 4.28 1.763.465 3.577.707 5.4.72 2.25.1 4.65.17 6.6-.95 3-1.73 3.89-5.55 5.52-8.62 1.38-2.6 3.44-4.81 4.73-7.46a29.464 29.464 0 0 0 2-6.52l2.77-12.3c1-4.47 1.92-9.51-.59-13.34a2.28 2.28 0 0 0-.74-.77 2.79 2.79 0 0 0-1.52-.15 16.44 16.44 0 0 1-9.15-2.09 3.936 3.936 0 0 1-1.15-.9 4.733 4.733 0 0 1-.7-2.12 22.15 22.15 0 0 0-1.28-4.45 2.994 2.994 0 0 0-.87-1.34 3.15 3.15 0 0 0-1.41-.47 114.469 114.469 0 0 0-12.93-1.35c-1.42-.07-3.56-.64-4.54.62s-.67 4.12-.79 5.62z"></path><path fill="#000" d="M533.88 82.67c-.22 2.06-.9 4.29-2.66 5.38-1.44.9-3.26.83-4.92 1.17a11.455 11.455 0 0 0-7.82 6.77 17.518 17.518 0 0 0-.75 10.55c.392 1.719.9 3.409 1.52 5.06 1.74 4.92 3.84 9.8 7.09 13.89a59.04 59.04 0 0 0 9.3 8.77c2.11 1.72 4.29 3.47 6.89 4.28 1.763.465 3.577.707 5.4.72 2.25.1 4.65.17 6.6-.95 3-1.73 3.89-5.55 5.52-8.62 1.38-2.6 3.44-4.81 4.73-7.46a29.464 29.464 0 0 0 2-6.52l2.77-12.3c1-4.47 1.92-9.51-.59-13.34a2.28 2.28 0 0 0-.74-.77 2.79 2.79 0 0 0-1.52-.15 16.44 16.44 0 0 1-9.15-2.09 3.936 3.936 0 0 1-1.15-.9 4.733 4.733 0 0 1-.7-2.12 22.15 22.15 0 0 0-1.28-4.45 2.994 2.994 0 0 0-.87-1.34 3.15 3.15 0 0 0-1.41-.47 114.469 114.469 0 0 0-12.93-1.35c-1.42-.07-3.56-.64-4.54.62s-.67 4.12-.79 5.62z" opacity=".1"></path><path fill="#FF2D55" d="M525.85 89.74a26.94 26.94 0 0 0-7.13-1.12c-5.72-.14-11.84 1.83-15.14 6.5a15.343 15.343 0 0 0-2.29 11.47 23.565 23.565 0 0 0 5.2 10.66 31.963 31.963 0 0 1 4 5.24c1.58 3 1.63 6.59 2.06 10 1 8.12 4.46 15.75 5.83 23.82s.19 17.42-6.18 22.55c-1.07.86-2.37 1.77-2.46 3.14-.14 2.19 2.71 3.12 4.9 3.33 6.55.62 13.27 1.23 19.63-.46 2.63-.7 5.17-1.79 7.85-2.29 6.8-1.27 13.64 1.34 20.45 2.59a90.598 90.598 0 0 0 14.91 1.21 7.941 7.941 0 0 0 3.43-.45 2.75 2.75 0 0 0 1.74-2.74 4.761 4.761 0 0 0-1.18-2c-3.44-4.25-4.49-9.9-5.43-15.29l-3.15-18.11c-1.69-9.68-3.26-20.2 1.32-28.89 3.29-6.25 9.36-10.65 12.83-16.8a9.837 9.837 0 0 0 1.55-6.28c-.52-3.09-3.31-5.3-6.17-6.59a23.21 23.21 0 0 0-17.42-.64c.1 4.33-1 8.71-1.71 13l-1.21 7a88.815 88.815 0 0 1-2.71 12.2 12.854 12.854 0 0 1-2.17 4.42 11.429 11.429 0 0 1-3.83 2.79 22.838 22.838 0 0 1-10.14 2.32 13.55 13.55 0 0 1-4.48-.69 19.013 19.013 0 0 1-6.17-4.34 10.099 10.099 0 0 1-1.63-1.77 9.952 9.952 0 0 1-1.11-2.67 55.374 55.374 0 0 1-1.91-7.48c-.3-1.94-.4-3.91-.54-5.87-.39-5.79-.39-12.19-1.54-17.76z"></path><path fill="#A0616A" d="M519.84 204.49s-2.37 31.43 12.45 36.76c14.82 5.33 1.78-26.09 1.78-26.09l-4.75-9.48-9.48-1.19zM570.23 204.49s2.37 31.43-12.45 36.76c-14.82 5.33-1.78-26.09-1.78-26.09l4.75-9.48 9.48-1.19z"></path><path fill="#000" d="M506.79 99.59l-4.74 7.71s4.15 26.68 4.74 31.42a62.256 62.256 0 0 0 2.38 10.08s.59 14.23.59 19.57 3 14.23 3 14.23a64.783 64.783 0 0 0 3 14.82c2.37 6.52 4.74 14.23 4.74 14.23s3-8.3 14.82 4.15a7.18 7.18 0 0 0 0-10.08s-3.55-16-3.55-24.31c0-8.31-6.53-48-6.53-48S521 88.29 506.79 99.59z" opacity=".1"></path><path fill="#FF2D55" d="M505.61 98.96l-4.74 7.71s4.15 26.68 4.74 31.42a61.818 61.818 0 0 0 2.39 10.08s.59 14.23.59 19.56c0 5.33 3 14.23 3 14.23a64.549 64.549 0 0 0 3 14.82c2.37 6.53 4.75 14.23 4.75 14.23s3-8.3 14.82 4.15a7.18 7.18 0 0 0 0-10.07s-3.56-16-3.56-24.31c0-8.31-6.52-48-6.52-48s-4.24-45.09-18.47-33.82z"></path><path fill="#000" d="M583.87 94.81l3 3.53s3.49 20.18-4.22 45.68l-2.37 23.12s-4.15 19.57-4.74 24.31c-.59 4.74-.59 5.33-1.78 7.11a2.29 2.29 0 0 0 0 3l-3.56 13s-5.33-6.52-16 1.78c0 0-3-4.74-.6-8.89s2.37-5.93 1.78-7.12c-.59-1.19 2.37-7.11 2.37-8.3 0-1.19 4.18-28.44 4.18-28.44s1.78-26.68 3.56-35.57c1.09-5.47 1.07-17.66.88-26.24-.19-8.94 10.63-13.78 17-7.5.15.16.33.31.5.53z" opacity=".1"></path><path fill="#FF2D55" d="M585.65 93.59l3 3.53s3.49 20.19-4.22 45.68l-2.37 23.12s-4.15 19.57-4.74 24.31c-.59 4.74-.6 5.34-1.78 7.12a2.28 2.28 0 0 0 0 3L572 213.39s-5.33-6.53-16 1.77c0 0-3-4.74-.59-8.89s2.37-5.93 1.78-7.11c-.59-1.18 2.37-7.12 2.37-8.3 0-1.18 4.15-28.46 4.15-28.46s1.78-26.68 3.56-35.58c1.78-8.9.59-35.57.59-35.57s9.49-6.52 17.79 2.34z"></path><path fill="#A0616A" d="M545.92 85.33c13.1 0 23.72-10.62 23.72-23.72s-10.62-23.72-23.72-23.72-23.72 10.62-23.72 23.72 10.62 23.72 23.72 23.72z"></path><path fill="#000" d="M558.29 26a16.597 16.597 0 0 1-15.392 11A16.6 16.6 0 0 1 527.2 26.44c9.26-3.73 18.72-.41 18.72-.41 4.73-1.66 8.83-1.51 12.37-.03z" opacity=".1"></path><path fill="#3F3D56" d="M545.92 27.22s-45.65-16-34.38 61.66c0 0 10.08 6.52 17.78 2.37 0 0-5.33-53.95 15.42-51.58 20.75 2.37 17.19 50.4 17.19 50.4s11.86 3.55 15.42-3c3.56-6.55-1.19-70.48-31.43-59.85z"></path><path fill="#000" d="M544.74 36.11c-14.24-1.62-16.2 23.27-16 39.05.17-15.69 2.81-37 16-35.49 14.81 1.69 17.24 26.66 17.41 40.8.17-12.98-1.25-42.51-17.41-44.36zM511.54 85.32a159.325 159.325 0 0 1-1.77-20.53c-.05 8.064.542 16.12 1.77 24.09 0 0 10.08 6.52 17.78 2.37 0 0-.12-1.28-.26-3.43-7.67 3.87-17.52-2.5-17.52-2.5zM577.35 83.59c-3.32 6.08-13.83 3.41-15.25 3-.07 2.2-.17 3.52-.17 3.52s11.86 3.55 15.42-3c.73-1.34 1.11-5.13 1-10.2-.1 3.25-.45 5.68-1 6.68z" opacity=".1"></path></g><path stroke="#3F3D56" stroke-miterlimit="10" stroke-width="4" d="M826.73 672.96c4.74-8.78-.64-19.54-6.82-27.37-6.18-7.83-13.73-16-13.57-26 .23-14.35 15.45-22.81 27.62-30.42a134.748 134.748 0 0 0 24.79-19.93c3-3.05 5.87-6.31 7.62-10.21 2.52-5.6 2.45-12 2.29-18.12a1327.093 1327.093 0 0 0-3-61.34"></path><path fill="#42D161" d="M888.74 478.49a22.306 22.306 0 0 0-11.16-18.32l-5 9.9.15-12a22.374 22.374 0 0 0-24.849 8.88 22.369 22.369 0 1 0 40.849 11.53l.01.01zM848.86 629.88a22.364 22.364 0 0 1-25.794 11.34 22.359 22.359 0 0 1-10.579-36.668 22.36 22.36 0 0 1 37.453 7.328l-14 11.37 15.37-3.57a22.247 22.247 0 0 1-2.45 10.2zM837.81 586.45a22.37 22.37 0 0 1-7.09-43.86l-.12 9.22 5.06-10h.06a22.368 22.368 0 0 1 17.691 37.458 22.364 22.364 0 0 1-15.601 7.232v-.05zM892.11 550.32a22.377 22.377 0 0 1-18.259-8.058A22.371 22.371 0 0 1 902 508.46l-4 10.83 8.13-7.8a22.371 22.371 0 0 1-1.851 34.493 22.372 22.372 0 0 1-12.219 4.337h.05z"></path><path fill="#000" d="M885.74 484.45c-5.17.57-10.19 2.18-15.37 2.5-5.18.32-10.87-.92-14.14-5-1.77-2.17-2.65-4.91-4.14-7.28a16.002 16.002 0 0 0-5.63-5.3 22.369 22.369 0 1 0 41.81 14.84c-.85.09-1.69.15-2.53.24zM892.11 550.32a22.392 22.392 0 0 1-23.355-20.713 22.39 22.39 0 0 1 2.075-11.197 16.372 16.372 0 0 1 4.5 4.51c1.59 2.4 2.56 5.18 4.43 7.39 3.48 4.09 9.44 5.43 14.84 5.19 5.4-.24 10.6-1.78 16-2.28.75-.06 1.5-.11 2.26-.13a22.372 22.372 0 0 1-20.75 17.23zM837.81 586.45a22.37 22.37 0 0 1-21.46-31.49 17.837 17.837 0 0 1 4.73 4.55c1.74 2.45 2.82 5.27 4.86 7.54 3.77 4.2 10.11 5.68 15.83 5.54 5.54-.12 10.87-1.48 16.38-1.9a22.361 22.361 0 0 1-20.34 15.76zM848.86 629.88a22.37 22.37 0 0 1-40.78-18.29 22.27 22.27 0 0 1 4.91 4.38c2.13 2.59 3.53 5.53 6 7.94 4.57 4.49 11.95 6.34 18.52 6.51 3.791.042 7.58-.139 11.35-.54z" opacity=".1"></path><path fill="#656380" d="M793 662.85s17.65-.54 23-4.33c5.35-3.79 27.16-8.31 28.48-2.24 1.32 6.07 26.53 30.22 6.6 30.38-19.93.16-46.31-3.1-51.62-6.34-5.31-3.24-6.46-17.47-6.46-17.47z"></path><path fill="#000" d="M851.4 684.59c-19.93.16-46.31-3.11-51.62-6.34-4-2.47-5.65-11.3-6.19-15.38H793s1.12 14.24 6.43 17.47c5.31 3.23 31.69 6.5 51.62 6.34 5.75 0 7.74-2.09 7.63-5.12-.8 1.81-2.99 2.95-7.28 3.03z" opacity=".2"></path><path fill="#F2F2F2" d="M323 42.86l-18.25 11.57 11.08-20.15a18.002 18.002 0 0 0-11-3.94h-.3a21.56 21.56 0 0 1-3.78-.28l-6.19 3.92 2.65-4.82a22.06 22.06 0 0 1-10.82-8.21l-11.07 7 7-12.72c-6.48-7.77-15.2-12.54-24.81-12.54-11.51 0-21.76 6.85-28.38 17.52a21.236 21.236 0 0 1-18.76 10.12h-.62c-12.71 0-23 14.41-23 32.19 0 17.78 10.3 32.18 23 32.18a17.201 17.201 0 0 0 8-2c8.29-4.31 19.17-4.39 27.85-.54a28.999 28.999 0 0 0 23.68.05c8.62-3.77 19.37-3.69 27.61.54a17.228 17.228 0 0 0 7.93 2c12.71 0 23-14.41 23-32.18A40.866 40.866 0 0 0 323 42.86z"></path><path fill="#000" d="M288.59 89.95a34 34 0 0 0-19.72 2.14 29 29 0 0 1-23.67-.05c-8.69-3.85-19.57-3.77-27.86.54a17.2 17.2 0 0 1-8 2c-11.29 0-20.68-11.38-22.64-26.38a21.58 21.58 0 0 0 5.64-6.08c6.66-10.66 16.87-17.53 28.38-17.53 11.51 0 21.64 6.77 28.26 17.32a21.783 21.783 0 0 0 18.76 10.31h.26c9 .01 16.8 7.22 20.59 17.73z" opacity=".03"></path><path fill="#F2F2F2" d="M800.07 66.42L791 72.19l5.53-10a9 9 0 0 0-5.51-2h-.14a10.788 10.788 0 0 1-1.89-.14l-3.09 2 1.3-2.46a11.002 11.002 0 0 1-5.4-4.09l-5.52 3.5 3.49-6.34a16.177 16.177 0 0 0-12.37-6.26c-5.75 0-10.86 3.42-14.16 8.74a10.569 10.569 0 0 1-9.36 5h-.31c-6.34 0-11.48 7.19-11.48 16 0 8.81 5.14 16.05 11.48 16.05a8.619 8.619 0 0 0 4-1 16.561 16.561 0 0 1 13.89-.27 14.523 14.523 0 0 0 11.81 0 16.582 16.582 0 0 1 13.77.27 8.609 8.609 0 0 0 4 1c6.34 0 11.48-7.18 11.48-16.05a20.277 20.277 0 0 0-2.45-9.72z"></path><path fill="#000" d="M782.92 89.91a17 17 0 0 0-9.83 1.07 14.52 14.52 0 0 1-11.81 0 16.581 16.581 0 0 0-13.9.27 8.55 8.55 0 0 1-4 1c-5.64 0-10.32-5.67-11.3-13.15a10.916 10.916 0 0 0 2.82-3c3.3-5.32 8.42-8.73 14.16-8.73s10.79 3.37 14.09 8.63a10.854 10.854 0 0 0 9.36 5.14h.15c4.49-.07 8.34 3.53 10.26 8.77z" opacity=".03"></path><path fill="#F2F2F2" d="M204.34 215.86l14.66 9.28-8.88-16.15a14.48 14.48 0 0 1 8.85-3.15h.23a17.124 17.124 0 0 0 3-.22l4.95 3.14-2.15-3.86a17.776 17.776 0 0 0 8.67-6.58l8.87 5.62-5.54-10.19c5.19-6.22 12.18-10 19.87-10 9.23 0 17.44 5.48 22.75 14a17.005 17.005 0 0 0 15 8.11h.5c10.18 0 18.43 11.54 18.43 25.78 0 14.24-8.25 25.79-18.43 25.79a13.863 13.863 0 0 1-6.43-1.61 26.594 26.594 0 0 0-22.31-.43 23.28 23.28 0 0 1-19 0 26.647 26.647 0 0 0-22.12.43 13.906 13.906 0 0 1-6.35 1.57c-10.19 0-18.44-11.54-18.44-25.79a32.782 32.782 0 0 1 3.87-15.74z"></path><path fill="#000" d="M231.89 253.59a27.358 27.358 0 0 1 15.8 1.72 23.28 23.28 0 0 0 19 0 26.62 26.62 0 0 1 22.32.43 13.82 13.82 0 0 0 6.42 1.61c9.05 0 16.57-9.11 18.14-21.13a17.442 17.442 0 0 1-4.52-4.88c-5.31-8.54-13.52-14-22.75-14s-17.33 5.42-22.64 13.88a17.432 17.432 0 0 1-15 8.25h-.23c-7.26-.07-13.5 5.71-16.54 14.12z" opacity=".03"></path></g><defs><clipPath id="clip0"><path fill="#fff" d="M0 0h1108v731.18H0z"></path></clipPath></defs></svg> 