<?xml version="1.0" encoding="UTF-8"?> <svg xmlns="http://www.w3.org/2000/svg" viewBox="0 0 1038 788" fill="none"><style xmlns="http://www.w3.org/2000/svg"> /* <![CDATA[ */ #logo { transform: scale(.95); transform-origin: center; animation: logo 3s ease-in-out infinite alternate; } #man { transform-origin: bottom center; transform-box: fill-box; animation: man 3s ease-in-out infinite alternate; } #woman { transform-origin: bottom center; transform-box: fill-box; animation: woman 3s ease-in-out infinite alternate; } @keyframes logo { to { transform: scale(1.1); } } @keyframes man { to { transform: rotate(-3deg); } } @keyframes woman { to { transform: rotate(3deg); } } /* ]]> */ </style><path fill="#F2F2F2" d="M892.019 314.123C846.396 134.798 688.756 5.35 503.721.158c-97.822-2.745-200.759 29.685-275.704 143.17-133.974 202.867 8.233 343.055 107.375 409.669a620.218 620.218 0 0 1 128.225 115.202c66.968 79.435 195.798 178.144 349.229 23.482 111.206-112.1 109.562-258.11 79.173-377.558z"></path><path fill="#000" d="M686.53 483.879l93.878-93.553-93.878-93.554 28.622-28.514 122.499 122.068-122.499 122.068-28.622-28.515zM366.735 482.926l-93.974-93.554 93.878-93.553-28.621-28.515-122.404 122.068L338.113 511.44l28.622-28.514z" opacity=".1"></path><path fill="#3F3D56" d="M1038 717.429C1038 733.23 805.636 788 519 788 232.364 788 0 733.23 0 717.429c0-15.8 232.364 13.351 519 13.351 286.636 0 519-29.151 519-13.351z"></path><path fill="#000" d="M1038 717.429C1038 733.23 805.636 788 519 788 232.364 788 0 733.23 0 717.429c0-15.8 232.364 13.351 519 13.351 286.636 0 519-29.151 519-13.351z" opacity=".1"></path><path fill="#3F3D56" d="M519 746.039c286.636 0 519-12.809 519-28.609 0-15.801-232.364-28.61-519-28.61-286.636 0-519 12.809-519 28.61 0 15.8 232.364 28.609 519 28.609z"></path><path fill="#12952F" d="M603.62 579.778c0 61.05 38.315 110.45 85.664 110.45l-85.664-110.45z"></path><path fill="#42D161" d="M689.284 690.228c0-61.735 42.757-111.691 95.597-111.691l-95.597 111.691zM634.658 585.312c0 57.991 24.432 104.916 54.626 104.916l-54.626-104.916z"></path><path fill="#12952F" d="M689.284 690.228c0-78.884 49.421-142.716 110.495-142.716L689.284 690.228z"></path><path fill="#A8A8A8" d="M671.263 691.007s12.148-.374 15.81-2.98c3.661-2.607 18.687-5.718 19.595-1.539.909 4.18 18.258 20.788 4.542 20.898-13.716.111-31.869-2.135-35.524-4.36-3.654-2.225-4.423-12.019-4.423-12.019z"></path><path fill="#000" d="M711.455 705.931c-13.716.111-31.87-2.135-35.524-4.36-2.783-1.695-3.892-7.775-4.263-10.58l-.405.016s.769 9.794 4.423 12.019c3.655 2.225 21.808 4.471 35.524 4.36 3.959-.032 5.327-1.44 5.252-3.525-.55 1.26-2.06 2.046-5.007 2.07z" opacity=".2"></path><g id="woman"><path fill="#FFB9B9" d="M825.757 365.11s-29.374-22.293-31.604-14.121c-2.229 8.171 21.553 26.744 21.553 26.744l10.051-12.623z"></path><path fill="#000" d="M825.757 365.11s-29.374-22.293-31.604-14.121c-2.229 8.171 21.553 26.744 21.553 26.744l10.051-12.623z" opacity=".1"></path><path fill="#D0CDE1" d="M922.725 294.529s-34.93 62.403-35.673 71.318c-.743 8.914-.743 9.657-3.716 8.914-2.973-.743-43.848-5.2-47.564-3.714-3.716 1.486-11.148-8.915-11.148-8.915s-14.12 14.115-11.148 17.087c2.973 2.971 11.891 4.457 13.378 8.171 1.486 3.715 3.716 7.429 10.404 6.686 6.689-.743 52.024 11.886 57.969 9.658 5.946-2.229 7.432-5.943 10.405-5.943 2.973 0 8.918-2.972 8.918-3.715 0-.743 20.81-40.116 20.81-40.116s24.525-53.488-12.635-59.431z"></path><path fill="#000" d="M922.725 294.529s-34.93 62.403-35.673 71.318c-.743 8.914-.743 9.657-3.716 8.914-2.973-.743-43.848-5.2-47.564-3.714-3.716 1.486-11.148-8.915-11.148-8.915s-14.12 14.115-11.148 17.087c2.973 2.971 11.891 4.457 13.378 8.171 1.486 3.715 3.716 7.429 10.404 6.686 6.689-.743 52.024 11.886 57.969 9.658 5.946-2.229 7.432-5.943 10.405-5.943 2.973 0 8.918-2.972 8.918-3.715 0-.743 20.81-40.116 20.81-40.116s24.525-53.488-12.635-59.431z" opacity=".1"></path><path fill="#754711" d="M872.048 253.39a61.688 61.688 0 0 0 .19 11.845c1.129 8.535 5.059 17.431 1.347 25.398-1.348 2.892-3.631 5.412-4.875 8.338-2.632 6.196-.246 13.067-.604 19.661-.462 8.518-5.882 16.725-14.126 21.393 14.085.437 27.48-6.524 36.343-16.01 8.862-9.486 13.798-21.251 17.498-33.023a71.73 71.73 0 0 0 3.63-17.092 24.62 24.62 0 0 0-1.153-9.904 37.741 37.741 0 0 0-5.097-8.701c-2.219-3.118-4.499-6.299-7.773-8.619-4.033-2.858-11.809-5.728-17.159-5.312-6.562.51-7.945 7.474-8.221 12.026z"></path><path fill="#FFB9B9" d="M893.741 276.7s8.175 28.973 1.486 37.144c-6.688 8.172 40.133-3.714 40.133-3.714s-23.039-23.03-11.891-37.887l-29.728 4.457z"></path><path fill="#000" d="M893.741 276.7s8.175 28.973 1.486 37.144c-6.688 8.172 40.133-3.714 40.133-3.714s-23.039-23.03-11.891-37.887l-29.728 4.457z" opacity=".1"></path><path fill="#FF2D55" d="M686.53 465.76l93.878-93.554-93.878-93.554 28.622-28.514 122.499 122.068-122.499 122.068-28.622-28.514z"></path><path fill="#FFB9B9" d="M866.986 663.002v21.544l11.148 13.371 9.661-4.457-2.973-31.201-17.836.743z"></path><path fill="#2F2E41" d="M871.445 683.06s-2.973-10.401-8.175-2.972c-5.202 7.429-10.405 23.772-13.377 24.515-2.973.743-23.783 23.773-2.973 23.773 20.809 0 27.498-9.658 27.498-9.658s20.809-8.172 20.809-9.657c0-1.486-2.973-28.973-4.459-28.973-1.486 0-2.23 5.2-5.946 5.2-3.715 0-13.377-2.228-13.377-2.228z"></path><path fill="#FFB9B9" d="M916.78 666.716l-.743 20.059 17.836 7.428V665.23l-17.093 1.486z"></path><path fill="#2F2E41" d="M936.103 686.774s-9.662-10.401-14.864-8.172a51.386 51.386 0 0 0-7.432 3.715s-2.973 9.657-4.459 17.829c-1.486 8.172-2.23 11.886-3.716 14.858-1.486 2.971-2.973 14.115 11.891 15.6 14.864 1.486 19.323-6.686 19.323-6.686l3.716-19.315s-1.486-17.829-4.459-17.829zM876.648 452.764s-21.553 48.288-18.58 92.118c0 0-7.432 17.087-2.973 43.831 4.459 26.744 10.405 80.232 10.405 80.232s20.066 2.228 21.552-1.486c0 0 1.487-37.144 2.973-38.63 1.486-1.486-.743-35.659-2.973-42.345-2.229-6.686 20.81-72.803 20.81-72.803l-5.946-82.461-25.268 21.544z"></path><path fill="#000" d="M876.648 452.764s-21.553 48.288-18.58 92.118c0 0-7.432 17.087-2.973 43.831 4.459 26.744 10.405 80.232 10.405 80.232s20.066 2.228 21.552-1.486c0 0 1.487-37.144 2.973-38.63 1.486-1.486-.743-35.659-2.973-42.345-2.229-6.686 20.81-72.803 20.81-72.803l-5.946-82.461-25.268 21.544z" opacity=".1"></path><path fill="#2F2E41" d="M870.702 449.793l14.121 30.458s6.688 69.089 10.404 78.004c0 0 1.487 25.258 8.175 33.43 6.689 8.171 11.891 80.231 11.891 80.231s18.58 5.201 20.067 0c1.486-5.2 5.945-40.858 5.945-40.858s1.487-30.459-6.689-50.517c-8.175-20.058 9.662-92.118 9.662-92.118s18.58-34.916-8.175-63.145l-65.401 24.515z"></path><path fill="#FFB9B9" d="M910.091 285.615c16.829 0 30.471-13.637 30.471-30.459s-13.642-30.458-30.471-30.458-30.471 13.636-30.471 30.458 13.642 30.459 30.471 30.459z"></path><path fill="#D0CDE1" d="M938.332 301.215s-31.957 0-36.416 3.715a5.932 5.932 0 0 1-8.175 0s-11.148.743-14.121 9.657c-2.972 8.915-11.891 20.801-11.891 20.801s-13.377 9.658-5.945 34.916c7.432 25.258 1.486 66.117 1.486 66.117s-5.945 8.915 0 12.629c5.946 3.714 8.175 5.2 7.432 8.172-.743 2.971 67.63-24.516 67.63-29.716 0-5.2-1.486-9.657 0-11.886 1.487-2.229 2.973-5.943 1.487-9.658-1.487-3.714 1.486-4.457.743-8.171-.743-3.715 3.716-31.202 6.689-43.088 2.972-11.886 2.229-52.745-8.919-53.488z"></path><path fill="#FFB9B9" d="M825.757 374.024s-29.374-22.292-31.604-14.121c-2.229 8.172 21.553 26.744 21.553 26.744l10.051-12.623z"></path><path fill="#D0CDE1" d="M922.725 304.93s-34.93 62.402-35.673 71.317c-.743 8.915-.743 9.657-3.716 8.915-2.973-.743-43.848-5.201-47.564-3.715-3.716 1.486-11.148-8.915-11.148-8.915s-14.12 14.115-11.148 17.087c2.973 2.972 11.891 4.457 13.378 8.172 1.486 3.714 3.716 7.429 10.404 6.686 6.689-.743 52.024 11.886 57.969 9.657 5.946-2.228 7.432-5.943 10.405-5.943 2.973 0 8.918-2.971 8.918-3.714 0-.743 20.81-40.116 20.81-40.116s24.525-53.488-12.635-59.431z"></path><path fill="#754711" d="M895.002 274.616c-.422-3.017-1.968-5.754-2.76-8.695a18.048 18.048 0 0 1 2.055-14.014c4.371-7.056 12.952-10.182 18.936-15.934.124 2.93 2.158 5.434 4.407 7.319 2.248 1.884 4.827 3.413 6.73 5.645a22.093 22.093 0 0 1 3.921 7.937 27.884 27.884 0 0 1 1.548 10.412 13.05 13.05 0 0 1-4.513 9.252c-2.229 1.761-5.344 2.766-6.421 5.394a9.211 9.211 0 0 0-.358 4.072c.511 8.174.987 16.492-.938 24.452-1.925 7.96-6.643 15.65-14.036 19.179 6.076.431 12.279.851 18.174-.682 5.894-1.533 11.531-5.394 13.564-11.133 1.002-2.831 1.097-5.98 2.521-8.625 3.606-6.693 13.561-6.998 18.452-12.819 1.957-2.33 2.903-5.332 3.605-8.292 4.13-17.418 1.228-35.913-5.058-52.675-2.167-5.777-4.864-11.594-9.511-15.655-3.955-3.455-9.005-5.359-13.999-6.984-7.289-2.373-14.797-4.317-22.458-4.568a28.532 28.532 0 0 0-9.859 1.151 29.292 29.292 0 0 0-8.674 4.939c-12.001 9.334-20.172 24.253-19.088 39.414.656 9.174 4.545 17.856 9.54 25.58 1.747 2.701 5.875 8.461 9.712 6.763 3.48-1.541 4.965-8.175 4.508-11.433z"></path></g><g id="man"><path fill="#2F2E41" d="M196.73 227.057c17.734 0 32.11-11.209 32.11-25.036 0-13.827-14.376-25.035-32.11-25.035s-32.111 11.208-32.111 25.035 14.377 25.036 32.111 25.036z"></path><path fill="#A0616A" d="M202.188 374.383s28.899 1.926 34.037-1.926c5.138-3.852 26.973 5.136 28.899 10.271 1.927 5.136-30.826 5.778-35.963 5.778-5.138 0-29.542 7.703-29.542 7.703l2.569-21.826z"></path><path fill="#2F2E41" d="M142.679 673.413s-13.468 33.95-6.441 38.047c7.027 4.097 80.809 1.171 80.809 1.171s12.297-7.61-1.756-12.878c0 0-11.712-.585-19.324-5.268-7.613-4.682-16.396-13.462-16.396-13.462s-.586-12.878-5.271-9.951a12.045 12.045 0 0 0-3.502 3.54 12.048 12.048 0 0 0-1.768 4.655l-26.351-5.854z"></path><path fill="#000" d="M142.679 673.413s-13.468 33.95-6.441 38.047c7.027 4.097 80.809 1.171 80.809 1.171s12.297-7.61-1.756-12.878c0 0-11.712-.585-19.324-5.268-7.613-4.682-16.396-13.462-16.396-13.462s-.586-12.878-5.271-9.951a12.045 12.045 0 0 0-3.502 3.54 12.048 12.048 0 0 0-1.768 4.655l-26.351-5.854z" opacity=".1"></path><path fill="#FF2D55" d="M366.735 464.806l-93.974-93.553 93.878-93.554-28.621-28.514-122.404 122.068 122.499 122.068 28.622-28.515z"></path><path fill="#2F2E41" d="M121.913 683.799s-14.771 37.233-7.064 41.726c7.706 4.494 88.624 1.284 88.624 1.284s13.486-8.345-1.927-14.123c0 0-12.844-.641-21.193-5.777-8.348-5.136-17.981-14.765-17.981-14.765s-.643-14.123-5.78-10.913a13.188 13.188 0 0 0-5.78 8.987l-28.899-6.419zM197.693 447.564l-8.991 80.885s-3.211 38.516-12.844 46.862c0 0 0 12.197-3.211 16.048l-4.496 50.714s6.422 18.616 5.78 21.826c-.642 3.209 2.569 13.48 1.927 14.764-.642 1.284-30.826 0-30.826 0l6.422-103.352 19.908-143.795 26.331 16.048z"></path><path fill="#000" d="M197.693 447.564l-8.991 80.885s-3.211 38.516-12.844 46.862c0 0 0 12.197-3.211 16.048l-4.496 50.714s6.422 18.616 5.78 21.826c-.642 3.209 2.569 13.48 1.927 14.764-.642 1.284-30.826 0-30.826 0l6.422-103.352 19.908-143.795 26.331 16.048z" opacity=".1"></path><path fill="#2F2E41" d="M181.638 444.996s-7.065 66.12-10.276 80.243a182.618 182.618 0 0 0-3.853 28.246s-.642 20.542-6.422 26.319a17.339 17.339 0 0 0-5.137 12.839s-5.78 64.836-2.569 72.54c3.211 7.703 6.422 14.122 3.211 19.258-3.211 5.135-38.532 5.135-38.532 1.284 0-3.852 0-7.062-1.927-8.988-1.927-1.925 0-14.122 0-14.122s-7.706-57.133-.642-73.824c7.064-16.69 10.275-62.268 10.275-62.268s-5.138-51.997-11.56-60.343c-6.422-8.345 1.285-37.874 1.285-37.874l66.147 16.69z"></path><path fill="#A0616A" d="M163.557 239.665c.747 1.7 2.534 2.647 4.161 3.543 9.428 5.192 17.321 12.72 25.097 20.162a29.436 29.436 0 0 1 1.169-19.917c.928-2.149 2.145-4.459 1.481-6.704-.488-1.651-1.894-2.841-3.256-3.895a101.042 101.042 0 0 0-9.931-6.772c-2.405-1.438-7.349-5.267-10.108-4.85-.145 3.727-.221 7.059-1.853 10.542-.388.826-6.474 8.541-6.76 7.891z"></path><path fill="#A0616A" d="M196.408 247.92c14.542 0 26.331-11.784 26.331-26.32s-11.789-26.319-26.331-26.319c-14.541 0-26.33 11.783-26.33 26.319s11.789 26.32 26.33 26.32z"></path><path fill="#3190FF" d="M197.693 283.869s4.495-22.468-8.349-30.171c-12.844-7.704-27.615-16.691-27.615-16.691s-4.495-.642-6.422 8.987c0 0-36.605 7.062-40.458 41.727-3.854 34.665 2.568 85.378 2.568 85.378s-5.779 44.294-12.844 68.046c0 0-5.78 5.135 19.909-2.568 25.688-7.703 70.642 21.826 70.642 21.826s4.495-4.494 4.495-7.703c0-3.21 5.138-21.826 5.138-21.826s4.495-78.959 6.422-87.946c1.927-8.988-7.706-57.775-13.486-59.059z"></path><path fill="#2F2E41" d="M190.203 224.312a10.988 10.988 0 0 1 5.164-1.375 9.828 9.828 0 0 0 5.108-1.521c2.487-1.909 2.67-5.598 4.489-8.15 2.635-3.696 7.89-4.141 12.426-3.956 2.774.113 5.762.279 8.098-1.221 2.399-1.54 3.486-4.441 4.294-7.174.957-3.231 1.575-7.182-.795-9.578-1.645-1.664-4.243-1.993-6.071-3.455-1.895-1.515-2.675-3.981-3.706-6.178a16.693 16.693 0 0 0-5.378-6.734c-3.448-2.395-7.853-2.932-12.052-2.887-4.199.045-8.416.597-12.583.082-3.415-.422-6.819-1.558-10.223-1.054-4.337.641-7.924 3.911-10.061 7.738-2.137 3.826-3.054 8.194-3.943 12.485l-2.419 11.671c-.75 3.62-1.503 7.336-.924 10.987 1.2 7.569 7.897 13.585 8.358 21.234a13.044 13.044 0 0 1 7.96-9.461 2.493 2.493 0 0 1 1.621-.196c.666.212 1.055.877 1.474 1.435 1.1 1.462 4.556 3.68 6.515 2.643 1.753-.928.444-3.841 2.648-5.335z"></path><path fill="#A0616A" d="M123.839 344.211s-4.495 28.246 14.129 25.678c0 0 9.633-1.284 10.917 0 1.285 1.284 48.808-7.061 55.23-14.123 0 0 7.706-2.567 11.559 1.284 3.854 3.852 42.386 7.704 30.826-3.851-11.56-11.555-29.541-14.123-29.541-14.123l-24.404 1.284s-12.844 3.852-20.55 0c-7.707-3.852-29.542-2.568-29.542-2.568l-18.624 6.419z"></path><path fill="#3190FF" d="M150.17 254.981s-28.899 3.21-28.899 44.936v53.282s16.055-7.062 19.266-6.42c3.211.642 16.055-8.345 16.055-8.345s14.77-34.665 13.486-44.294c-1.284-9.629-.642-37.875-19.908-39.159z"></path><path fill="#2F2E41" d="M196.408 218.07c13.656 0 24.725-5.748 24.725-12.839s-11.069-12.839-24.725-12.839c-13.655 0-24.724 5.748-24.724 12.839s11.069 12.839 24.724 12.839z"></path><path fill="#2F2E41" d="M173.289 228.983c4.788 0 8.67-9.628 8.67-21.505 0-11.877-3.882-21.505-8.67-21.505s-8.67 9.628-8.67 21.505c0 11.877 3.882 21.505 8.67 21.505z"></path></g><g id="logo"><path fill="#41B883" fill-rule="evenodd" d="M673.5 196l-144 249.75L384 196h58l87.5 152.5 86-152.5h58z" clip-rule="evenodd"></path><path fill="#35495E" fill-rule="evenodd" d="M618 196l-88.041 153L441 196h54l34.959 59 33.541-59H618z" clip-rule="evenodd"></path></g></svg> 